<?xml version="1.0" standalone="no"?>
<!DOCTYPE svg PUBLIC "-//W3C//DTD SVG 20010904//EN"
 "http://www.w3.org/TR/2001/REC-SVG-20010904/DTD/svg10.dtd">
<svg version="1.0" xmlns="http://www.w3.org/2000/svg"
 width="674.000000pt" height="674.000000pt" viewBox="0 0 674.000000 674.000000"
 preserveAspectRatio="xMidYMid meet">
<metadata>
Created by potrace 1.14, written by Peter Selinger 2001-2017
</metadata>
<g transform="translate(0.000000,674.000000) scale(0.100000,-0.100000)"
fill="#000000" stroke="none">
<path d="M3127 6734 c-1 -1 -157 -4 -347 -8 -413 -7 -463 -10 -614 -46 -542
-128 -1034 -435 -1376 -859 -52 -64 -157 -212 -172 -241 -7 -14 -17 -32 -24
-40 -24 -30 -122 -227 -162 -325 -71 -175 -136 -416 -157 -585 -3 -25 -8 -63
-11 -85 -3 -22 -7 -125 -9 -230 -3 -171 0 -226 20 -387 14 -106 56 -282 98
-409 43 -127 94 -270 100 -275 1 -1 40 55 87 124 47 69 110 160 141 201 68 93
245 268 410 406 13 11 60 45 104 75 44 30 82 58 83 63 2 4 8 7 13 7 5 0 32 15
61 33 92 59 260 140 377 183 36 14 73 28 81 31 8 3 20 7 25 8 6 1 33 10 60 19
79 27 281 75 343 81 161 16 385 22 1037 30 1429 16 1630 19 1970 30 99 4 200
8 225 11 46 4 185 46 230 69 14 7 54 27 90 44 227 106 399 252 526 446 56 84
93 173 125 295 24 92 27 120 24 235 -2 129 -4 144 -29 240 -53 202 -209 431
-389 569 -184 140 -451 252 -653 271 -38 4 -82 9 -99 12 -25 5 -2183 11 -2188
7z"/>
<path d="M2667 4004 c-1 -1 -54 -4 -117 -8 -153 -9 -184 -13 -325 -41 -113
-23 -313 -80 -380 -109 -16 -7 -57 -23 -90 -36 -87 -34 -286 -137 -385 -200
-277 -176 -543 -436 -722 -705 -40 -61 -158 -262 -158 -271 0 -2 -44 -101 -71
-159 -29 -63 -102 -300 -115 -372 -2 -13 -6 -35 -9 -50 -3 -16 -8 -43 -11 -62
-3 -18 -7 -43 -10 -55 -29 -150 -23 -623 10 -733 3 -10 8 -37 11 -60 10 -69
64 -271 91 -342 43 -111 169 -361 231 -458 32 -51 78 -114 103 -140 25 -26 70
-77 99 -113 82 -98 77 -93 78 -68 2 61 14 257 18 288 2 19 7 60 10 90 8 69 13
104 26 160 6 25 13 56 15 69 8 41 61 186 90 247 67 139 152 253 288 390 213
212 348 284 745 399 305 88 347 94 851 110 487 16 577 23 725 52 295 57 611
271 790 533 122 178 161 311 159 540 -2 330 -131 579 -409 794 -129 100 -253
173 -393 229 -104 43 -205 58 -482 73 -102 6 -657 13 -663 8z"/>
</g>
</svg>
